<?xml version="1.0" encoding="UTF-8"?>
<svg width="66.146mm" height="15.605mm" version="1.1" viewBox="0 0 66.146 15.605" xmlns="http://www.w3.org/2000/svg" xmlns:cc="http://creativecommons.org/ns#" xmlns:dc="http://purl.org/dc/elements/1.1/" xmlns:rdf="http://www.w3.org/1999/02/22-rdf-syntax-ns#">
<metadata>
<rdf:RDF>
<cc:Work rdf:about="">
<dc:format>image/svg+xml</dc:format>
<dc:type rdf:resource="http://purl.org/dc/dcmitype/StillImage"/>
<dc:title/>
</cc:Work>
</rdf:RDF>
</metadata>
<g transform="translate(457.16 54.761)">
<g transform="matrix(.53618 0 0 .53618 -463.31 -127.39)">
<g transform="translate(-57.496 -2.7525)" fill-rule="evenodd">
<g transform="translate(-102.9 -60.243)" fill="#d3d7cf">
<path d="m177.58 223.58-2.2914-1.3229v-14.552l2.2914 1.3229zm3.437 1.9844v-17.198l-2.2914 1.3229v14.552l2.2914 1.3229m-9.1654-19.844 2.2914-1.3229 6.8741 3.9688-2.2914 1.3229zm0 14.552v-14.552l2.2914 1.3229v14.552z"/>
<path d="m178.73 201.75 2.2914-1.3229 12.602 7.276-2.2914 1.3229zm-3.437 1.9844 14.894 8.599 1e-5 -2.6458-12.602-7.276-2.2914 1.3229m21.768 1.9844-1e-5 2.6458-6.8741 3.9688 1e-5 -2.6458zm-12.602-7.276 12.602 7.276-2.2914 1.3229-12.602-7.276z"/>
<path transform="matrix(.26458 0 0 .26458 0 87)" d="m736.12 468.7-47.631 27.5 8.6602 5 15.154-8.75-23.814 23.75v10l8.6602 5 47.631-27.5v-10l-47.631 27.5 47.631-47.5z"/>
</g>
<g transform="translate(-102.9 -60.243)" fill="#fff">
<path d="m184.45 224.9v2.6458l12.602-7.276v-2.6458z"/>
<path d="m182.16 218.29 2.2914 1.3229 12.602-7.276-2.2914-1.3229z"/>
<path d="m171.85 205.72 2.2914 1.3229v14.552l-2.2914-1.3229z"/>
<path d="m175.29 207.7 2.2914 1.3229v14.552l-2.2914-1.3229v-14.552"/>
<path d="m181.02 208.36-2.2914 1.3229v14.552l2.2914 1.3229v-17.198"/>
<path d="m197.06 205.72-2.2914 1.3229-12.602-7.276 2.2914-1.3229z"/>
<path d="m193.62 207.7-2.2913 1.3229-12.602-7.276 2.2914-1.3229 12.602 7.276"/>
<path d="m190.18 212.33v-2.6458l-12.602-7.276-2.2914 1.3229 14.894 8.599"/>
</g>
</g>
<g transform="matrix(1.0476 0 0 1.0476 -153.31 -75.283)">
<path d="m191.69 208.1a4.1672 2.7781 0 0 0-2.7781 0.71158v13.179h2.7781v-8.3344a2.7781 2.7781 0 0 1 2.7781-2.7781 2.7781 2.7781 0 0 1 2.7781 2.7781v8.3344h2.7781v-8.3344a2.7781 2.7781 0 0 1 2.7781-2.7781 2.7781 2.7781 0 0 1 2.7781 2.7781v8.3344h2.7781v-8.3344a5.5562 5.5562 0 0 0-5.5562-5.5562 5.5562 5.5562 0 0 0-4.1656 1.8898 5.5562 5.5562 0 0 0-4.1687-1.8898 5.5562 5.5562 0 0 0-2.7781 0.75034z" fill="#fff" style="paint-order:stroke fill markers"/>
<path d="m219.47 208.1a4.1672 2.7781 0 0 0-2.7781 0.71158v13.179h2.7781v-8.3344a2.7781 2.7781 0 0 1 2.7781-2.7781 2.7781 2.7781 0 0 1 2.7781 2.7781v8.3344h2.7781v-8.3344a2.7781 2.7781 0 0 1 2.7781-2.7781 2.7781 2.7781 0 0 1 2.7781 2.7781v8.3344h2.7781v-8.3344a5.5562 5.5562 0 0 0-5.5562-5.5562 5.5562 5.5562 0 0 0-4.1656 1.8898 5.5562 5.5562 0 0 0-4.1687-1.8898 5.5562 5.5562 0 0 0-2.7781 0.75034z" fill="#fff" style="paint-order:stroke fill markers"/>
<path d="m268.09 208.1a6.9453 6.9453 0 0 0-6.9453 6.9453 6.9453 6.9453 0 0 0 6.9453 6.9453 6.9453 6.9453 0 0 0 4.1672-1.3999v0.68833a4.1672 2.7781 0 0 0 2.7781 0.71158v-6.9453a6.9453 6.9453 0 0 0-6.9453-6.9453zm0 2.7781a4.1672 4.1672 0 0 1 4.1672 4.1672 4.1672 4.1672 0 0 1-4.1672 4.1672 4.1672 4.1672 0 0 1-4.1672-4.1672 4.1672 4.1672 0 0 1 4.1672-4.1672z" fill="#fff" style="paint-order:stroke fill markers"/>
<path d="m213.92 208.1a4.1672 2.7781 0 0 0-2.7781 0.71159v13.179h2.7781z" fill="#fff" style="paint-order:stroke fill markers"/>
<path d="m241.7 208.1a4.1672 2.7781 0 0 0-2.7781 0.71159v13.179h2.7781z" fill="#fff" style="paint-order:stroke fill markers"/>
<path d="m244.48 208.1a2.7781 4.1672 0 0 0 0.71159 2.7781h13.179v-2.7781z" fill="#fff" style="paint-order:stroke fill markers"/>
<path d="m257.33 208.1-12.852 11.112v2.7781l1.0377 9e-5 12.853-11.113v-2.7781z" fill="#d3d7cf" style="paint-order:stroke fill markers"/>
<path d="m258.37 221.99a2.7781 4.1672 0 0 0-0.71159-2.7781h-13.179v2.7781z" fill="#fff" style="paint-order:stroke fill markers"/>
</g>
</g>
</g>
</svg>
